<mxfile host="app.diagrams.net" modified="2024-06-19T12:43:14.126Z" agent="Mozilla/5.0 (Windows NT 10.0; Win64; x64) AppleWebKit/537.36 (KHTML, like Gecko) Chrome/121.0.0.0 Safari/537.36" etag="c5sLM6fExPCXH-bQgteP" version="24.5.5" type="device">
  <diagram name="Página-1" id="cAUkqCbXj0w3T16T-0Q6">
    <mxGraphModel dx="2074" dy="680" grid="1" gridSize="10" guides="1" tooltips="1" connect="1" arrows="1" fold="1" page="1" pageScale="1" pageWidth="827" pageHeight="1169" math="0" shadow="0">
      <root>
        <mxCell id="0" />
        <mxCell id="1" parent="0" />
        <mxCell id="lD8pX8BNRvtxvGFlaqxf-33" value="" style="group" parent="1" vertex="1" connectable="0">
          <mxGeometry x="640" y="120" width="560" height="630" as="geometry" />
        </mxCell>
        <mxCell id="lD8pX8BNRvtxvGFlaqxf-1" value="Compra de Tecido M²" style="rounded=0;whiteSpace=wrap;html=1;" parent="lD8pX8BNRvtxvGFlaqxf-33" vertex="1">
          <mxGeometry x="200" width="160" height="40" as="geometry" />
        </mxCell>
        <mxCell id="lD8pX8BNRvtxvGFlaqxf-2" value="-Nome&lt;div&gt;-Modelo&lt;/div&gt;&lt;div&gt;-Gramatura&lt;/div&gt;&lt;div&gt;-Quantidade M²&lt;/div&gt;" style="rounded=0;whiteSpace=wrap;html=1;" parent="lD8pX8BNRvtxvGFlaqxf-33" vertex="1">
          <mxGeometry x="200" y="40" width="160" height="120" as="geometry" />
        </mxCell>
        <mxCell id="lD8pX8BNRvtxvGFlaqxf-3" value="+ Set Nome&lt;div&gt;+ Get Nome&lt;/div&gt;&lt;div&gt;+ Set Modelo&lt;/div&gt;&lt;div&gt;+ Get Modelo&lt;/div&gt;&lt;div&gt;&lt;div&gt;+ Set Gramatura&lt;/div&gt;&lt;div&gt;+ Get Gramatura&lt;/div&gt;&lt;/div&gt;&lt;div&gt;+ Set Quantidade M²&lt;/div&gt;&lt;div&gt;+ Get Quantidade M²&lt;/div&gt;" style="rounded=0;whiteSpace=wrap;html=1;" parent="lD8pX8BNRvtxvGFlaqxf-33" vertex="1">
          <mxGeometry x="200" y="160" width="160" height="140" as="geometry" />
        </mxCell>
        <mxCell id="lD8pX8BNRvtxvGFlaqxf-4" value="Item Venda" style="rounded=0;whiteSpace=wrap;html=1;" parent="lD8pX8BNRvtxvGFlaqxf-33" vertex="1">
          <mxGeometry y="320" width="160" height="40" as="geometry" />
        </mxCell>
        <mxCell id="lD8pX8BNRvtxvGFlaqxf-5" value="-Produtos" style="rounded=0;whiteSpace=wrap;html=1;" parent="lD8pX8BNRvtxvGFlaqxf-33" vertex="1">
          <mxGeometry y="360" width="160" height="120" as="geometry" />
        </mxCell>
        <mxCell id="lD8pX8BNRvtxvGFlaqxf-6" value="+Get Produtos&lt;div&gt;+Set Produtos&lt;/div&gt;" style="rounded=0;whiteSpace=wrap;html=1;" parent="lD8pX8BNRvtxvGFlaqxf-33" vertex="1">
          <mxGeometry y="480" width="160" height="120" as="geometry" />
        </mxCell>
        <mxCell id="lD8pX8BNRvtxvGFlaqxf-7" value="Produto" style="rounded=0;whiteSpace=wrap;html=1;" parent="lD8pX8BNRvtxvGFlaqxf-33" vertex="1">
          <mxGeometry x="400" y="320" width="160" height="40" as="geometry" />
        </mxCell>
        <mxCell id="lD8pX8BNRvtxvGFlaqxf-8" value="" style="rounded=0;whiteSpace=wrap;html=1;" parent="lD8pX8BNRvtxvGFlaqxf-33" vertex="1">
          <mxGeometry x="400" y="360" width="160" height="120" as="geometry" />
        </mxCell>
        <mxCell id="lD8pX8BNRvtxvGFlaqxf-9" value="" style="rounded=0;whiteSpace=wrap;html=1;" parent="lD8pX8BNRvtxvGFlaqxf-33" vertex="1">
          <mxGeometry x="400" y="480" width="160" height="120" as="geometry" />
        </mxCell>
        <mxCell id="lD8pX8BNRvtxvGFlaqxf-10" value="" style="endArrow=classic;html=1;rounded=0;exitX=0.988;exitY=0.808;exitDx=0;exitDy=0;exitPerimeter=0;entryX=0.563;entryY=0;entryDx=0;entryDy=0;entryPerimeter=0;" parent="lD8pX8BNRvtxvGFlaqxf-33" source="lD8pX8BNRvtxvGFlaqxf-2" target="lD8pX8BNRvtxvGFlaqxf-7" edge="1">
          <mxGeometry width="50" height="50" relative="1" as="geometry">
            <mxPoint x="470" y="260" as="sourcePoint" />
            <mxPoint x="520" y="210" as="targetPoint" />
            <Array as="points">
              <mxPoint x="490" y="137" />
            </Array>
          </mxGeometry>
        </mxCell>
        <mxCell id="lD8pX8BNRvtxvGFlaqxf-11" value="" style="endArrow=classic;html=1;rounded=0;entryX=0.5;entryY=0;entryDx=0;entryDy=0;exitX=0;exitY=0.75;exitDx=0;exitDy=0;" parent="lD8pX8BNRvtxvGFlaqxf-33" source="lD8pX8BNRvtxvGFlaqxf-2" target="lD8pX8BNRvtxvGFlaqxf-4" edge="1">
          <mxGeometry width="50" height="50" relative="1" as="geometry">
            <mxPoint x="130" y="90" as="sourcePoint" />
            <mxPoint x="182" y="311.5" as="targetPoint" />
            <Array as="points">
              <mxPoint x="80" y="130" />
            </Array>
          </mxGeometry>
        </mxCell>
        <mxCell id="lD8pX8BNRvtxvGFlaqxf-13" value="Classe Filho" style="text;html=1;align=center;verticalAlign=middle;resizable=0;points=[];autosize=1;strokeColor=none;fillColor=none;" parent="lD8pX8BNRvtxvGFlaqxf-33" vertex="1">
          <mxGeometry x="30" y="600" width="90" height="30" as="geometry" />
        </mxCell>
        <mxCell id="lD8pX8BNRvtxvGFlaqxf-14" value="Classe Filho" style="text;html=1;align=center;verticalAlign=middle;resizable=0;points=[];autosize=1;strokeColor=none;fillColor=none;" parent="lD8pX8BNRvtxvGFlaqxf-33" vertex="1">
          <mxGeometry x="435" y="600" width="90" height="30" as="geometry" />
        </mxCell>
        <mxCell id="lD8pX8BNRvtxvGFlaqxf-62" value="" style="group" parent="1" vertex="1" connectable="0">
          <mxGeometry x="-40" y="90" width="560" height="660" as="geometry" />
        </mxCell>
        <mxCell id="lD8pX8BNRvtxvGFlaqxf-48" value="Pessoa" style="rounded=0;whiteSpace=wrap;html=1;" parent="lD8pX8BNRvtxvGFlaqxf-62" vertex="1">
          <mxGeometry x="200" y="30" width="160" height="40" as="geometry" />
        </mxCell>
        <mxCell id="lD8pX8BNRvtxvGFlaqxf-49" value="-Nome&lt;div&gt;-Telefone&lt;/div&gt;" style="rounded=0;whiteSpace=wrap;html=1;" parent="lD8pX8BNRvtxvGFlaqxf-62" vertex="1">
          <mxGeometry x="200" y="70" width="160" height="120" as="geometry" />
        </mxCell>
        <mxCell id="lD8pX8BNRvtxvGFlaqxf-50" value="+ Set Nome&lt;div&gt;+ Get Nome&lt;/div&gt;&lt;div&gt;+ Set Telefone&lt;/div&gt;&lt;div&gt;+ Get Telefone&lt;/div&gt;" style="rounded=0;whiteSpace=wrap;html=1;" parent="lD8pX8BNRvtxvGFlaqxf-62" vertex="1">
          <mxGeometry x="200" y="190" width="160" height="120" as="geometry" />
        </mxCell>
        <mxCell id="lD8pX8BNRvtxvGFlaqxf-51" value="Cliente" style="rounded=0;whiteSpace=wrap;html=1;" parent="lD8pX8BNRvtxvGFlaqxf-62" vertex="1">
          <mxGeometry y="350" width="160" height="40" as="geometry" />
        </mxCell>
        <mxCell id="lD8pX8BNRvtxvGFlaqxf-52" value="-CPF" style="rounded=0;whiteSpace=wrap;html=1;" parent="lD8pX8BNRvtxvGFlaqxf-62" vertex="1">
          <mxGeometry y="390" width="160" height="120" as="geometry" />
        </mxCell>
        <mxCell id="lD8pX8BNRvtxvGFlaqxf-53" value="+ Get CPF&lt;div&gt;+ Set CPF&lt;/div&gt;" style="rounded=0;whiteSpace=wrap;html=1;" parent="lD8pX8BNRvtxvGFlaqxf-62" vertex="1">
          <mxGeometry y="510" width="160" height="120" as="geometry" />
        </mxCell>
        <mxCell id="lD8pX8BNRvtxvGFlaqxf-54" value="Fornecedor" style="rounded=0;whiteSpace=wrap;html=1;" parent="lD8pX8BNRvtxvGFlaqxf-62" vertex="1">
          <mxGeometry x="400" y="350" width="160" height="40" as="geometry" />
        </mxCell>
        <mxCell id="lD8pX8BNRvtxvGFlaqxf-55" value="" style="rounded=0;whiteSpace=wrap;html=1;" parent="lD8pX8BNRvtxvGFlaqxf-62" vertex="1">
          <mxGeometry x="400" y="390" width="160" height="120" as="geometry" />
        </mxCell>
        <mxCell id="lD8pX8BNRvtxvGFlaqxf-56" value="" style="rounded=0;whiteSpace=wrap;html=1;" parent="lD8pX8BNRvtxvGFlaqxf-62" vertex="1">
          <mxGeometry x="400" y="510" width="160" height="120" as="geometry" />
        </mxCell>
        <mxCell id="lD8pX8BNRvtxvGFlaqxf-57" value="" style="endArrow=classic;html=1;rounded=0;exitX=0.988;exitY=0.808;exitDx=0;exitDy=0;exitPerimeter=0;entryX=0.563;entryY=0;entryDx=0;entryDy=0;entryPerimeter=0;" parent="lD8pX8BNRvtxvGFlaqxf-62" source="lD8pX8BNRvtxvGFlaqxf-49" target="lD8pX8BNRvtxvGFlaqxf-54" edge="1">
          <mxGeometry width="50" height="50" relative="1" as="geometry">
            <mxPoint x="470" y="290" as="sourcePoint" />
            <mxPoint x="520" y="240" as="targetPoint" />
            <Array as="points">
              <mxPoint x="490" y="167" />
            </Array>
          </mxGeometry>
        </mxCell>
        <mxCell id="lD8pX8BNRvtxvGFlaqxf-58" value="" style="endArrow=classic;html=1;rounded=0;entryX=0.5;entryY=0;entryDx=0;entryDy=0;exitX=0;exitY=0.75;exitDx=0;exitDy=0;" parent="lD8pX8BNRvtxvGFlaqxf-62" source="lD8pX8BNRvtxvGFlaqxf-49" target="lD8pX8BNRvtxvGFlaqxf-51" edge="1">
          <mxGeometry width="50" height="50" relative="1" as="geometry">
            <mxPoint x="130" y="120" as="sourcePoint" />
            <mxPoint x="182" y="341.5" as="targetPoint" />
            <Array as="points">
              <mxPoint x="80" y="160" />
            </Array>
          </mxGeometry>
        </mxCell>
        <mxCell id="lD8pX8BNRvtxvGFlaqxf-59" value="Classe Pai" style="text;html=1;align=center;verticalAlign=middle;resizable=0;points=[];autosize=1;strokeColor=none;fillColor=none;" parent="lD8pX8BNRvtxvGFlaqxf-62" vertex="1">
          <mxGeometry x="240" width="80" height="30" as="geometry" />
        </mxCell>
        <mxCell id="lD8pX8BNRvtxvGFlaqxf-60" value="Classe Filho" style="text;html=1;align=center;verticalAlign=middle;resizable=0;points=[];autosize=1;strokeColor=none;fillColor=none;" parent="lD8pX8BNRvtxvGFlaqxf-62" vertex="1">
          <mxGeometry x="30" y="630" width="90" height="30" as="geometry" />
        </mxCell>
        <mxCell id="lD8pX8BNRvtxvGFlaqxf-61" value="Classe Filho" style="text;html=1;align=center;verticalAlign=middle;resizable=0;points=[];autosize=1;strokeColor=none;fillColor=none;" parent="lD8pX8BNRvtxvGFlaqxf-62" vertex="1">
          <mxGeometry x="435" y="630" width="90" height="30" as="geometry" />
        </mxCell>
        <mxCell id="lD8pX8BNRvtxvGFlaqxf-63" value="Classe Pai" style="text;html=1;align=center;verticalAlign=middle;resizable=0;points=[];autosize=1;strokeColor=none;fillColor=none;" parent="1" vertex="1">
          <mxGeometry x="880" y="80" width="80" height="30" as="geometry" />
        </mxCell>
        <mxCell id="lD8pX8BNRvtxvGFlaqxf-64" value="" style="group" parent="1" vertex="1" connectable="0">
          <mxGeometry x="1320" y="110" width="560" height="650" as="geometry" />
        </mxCell>
        <mxCell id="lD8pX8BNRvtxvGFlaqxf-65" value="Despache de Tecido" style="rounded=0;whiteSpace=wrap;html=1;" parent="lD8pX8BNRvtxvGFlaqxf-64" vertex="1">
          <mxGeometry x="200" width="160" height="40" as="geometry" />
        </mxCell>
        <mxCell id="lD8pX8BNRvtxvGFlaqxf-66" value="-Nome&lt;div&gt;-Modelo&lt;/div&gt;&lt;div&gt;-Gramatura&lt;/div&gt;&lt;div&gt;-Quantidade M²&lt;/div&gt;" style="rounded=0;whiteSpace=wrap;html=1;" parent="lD8pX8BNRvtxvGFlaqxf-64" vertex="1">
          <mxGeometry x="200" y="40" width="160" height="120" as="geometry" />
        </mxCell>
        <mxCell id="lD8pX8BNRvtxvGFlaqxf-67" value="+ Set Nome&lt;div&gt;+ Get Nome&lt;/div&gt;&lt;div&gt;+ Set Modelo&lt;/div&gt;&lt;div&gt;+ Get Modelo&lt;/div&gt;&lt;div&gt;&lt;div&gt;+ Set Gramatura&lt;/div&gt;&lt;div&gt;+ Get Gramatura&lt;/div&gt;&lt;/div&gt;&lt;div&gt;+ Set Quantidade M²&lt;/div&gt;&lt;div&gt;+ Get Quantidade M²&lt;/div&gt;" style="rounded=0;whiteSpace=wrap;html=1;" parent="lD8pX8BNRvtxvGFlaqxf-64" vertex="1">
          <mxGeometry x="200" y="160" width="160" height="140" as="geometry" />
        </mxCell>
        <mxCell id="lD8pX8BNRvtxvGFlaqxf-68" value="Localização&amp;nbsp;" style="rounded=0;whiteSpace=wrap;html=1;" parent="lD8pX8BNRvtxvGFlaqxf-64" vertex="1">
          <mxGeometry y="320" width="160" height="40" as="geometry" />
        </mxCell>
        <mxCell id="lD8pX8BNRvtxvGFlaqxf-69" value="&lt;div&gt;Estado:&lt;/div&gt;&lt;div&gt;Cidade:&lt;/div&gt;&lt;div&gt;Bairro:&lt;/div&gt;Rua:&lt;div&gt;Número:&lt;/div&gt;" style="rounded=0;whiteSpace=wrap;html=1;" parent="lD8pX8BNRvtxvGFlaqxf-64" vertex="1">
          <mxGeometry y="360" width="160" height="120" as="geometry" />
        </mxCell>
        <mxCell id="lD8pX8BNRvtxvGFlaqxf-70" value="+ Get Estado&lt;div&gt;+ Set Estado&lt;/div&gt;&lt;div&gt;&lt;div&gt;+ Get Cidade&lt;/div&gt;&lt;div&gt;+ Set Cidade&lt;/div&gt;&lt;/div&gt;&lt;div&gt;+ Get Bairro&lt;/div&gt;&lt;div&gt;+ Set Bairro&lt;/div&gt;&lt;div&gt;+ Get Rua&lt;/div&gt;&lt;div&gt;+ Set Rua&lt;/div&gt;&lt;div&gt;+ Get Número&amp;nbsp;&lt;/div&gt;&lt;div&gt;+ Set Número&lt;/div&gt;" style="rounded=0;whiteSpace=wrap;html=1;" parent="lD8pX8BNRvtxvGFlaqxf-64" vertex="1">
          <mxGeometry y="480" width="160" height="170" as="geometry" />
        </mxCell>
        <mxCell id="lD8pX8BNRvtxvGFlaqxf-71" value="Minha Localização" style="rounded=0;whiteSpace=wrap;html=1;" parent="lD8pX8BNRvtxvGFlaqxf-64" vertex="1">
          <mxGeometry x="400" y="320" width="160" height="40" as="geometry" />
        </mxCell>
        <mxCell id="lD8pX8BNRvtxvGFlaqxf-72" value="&lt;div&gt;Estado:&lt;/div&gt;&lt;div&gt;Cidade:&lt;/div&gt;&lt;div&gt;Bairro:&lt;/div&gt;Rua:&lt;div&gt;Número:&lt;/div&gt;" style="rounded=0;whiteSpace=wrap;html=1;" parent="lD8pX8BNRvtxvGFlaqxf-64" vertex="1">
          <mxGeometry x="400" y="360" width="160" height="120" as="geometry" />
        </mxCell>
        <mxCell id="lD8pX8BNRvtxvGFlaqxf-73" value="+ Get Estado&lt;div&gt;+ Set Estado&lt;/div&gt;&lt;div&gt;&lt;div&gt;+ Get Cidade&lt;/div&gt;&lt;div&gt;+ Set Cidade&lt;/div&gt;&lt;/div&gt;&lt;div&gt;+ Get Bairro&lt;/div&gt;&lt;div&gt;+ Set Bairro&lt;/div&gt;&lt;div&gt;+ Get Rua&lt;/div&gt;&lt;div&gt;+ Set Rua&lt;/div&gt;&lt;div&gt;+ Get Número&amp;nbsp;&lt;/div&gt;&lt;div&gt;+ Set Número&lt;/div&gt;" style="rounded=0;whiteSpace=wrap;html=1;" parent="lD8pX8BNRvtxvGFlaqxf-64" vertex="1">
          <mxGeometry x="400" y="480" width="160" height="170" as="geometry" />
        </mxCell>
        <mxCell id="lD8pX8BNRvtxvGFlaqxf-74" value="" style="endArrow=classic;html=1;rounded=0;exitX=0.988;exitY=0.808;exitDx=0;exitDy=0;exitPerimeter=0;entryX=0.563;entryY=0;entryDx=0;entryDy=0;entryPerimeter=0;" parent="lD8pX8BNRvtxvGFlaqxf-64" source="lD8pX8BNRvtxvGFlaqxf-66" target="lD8pX8BNRvtxvGFlaqxf-71" edge="1">
          <mxGeometry width="50" height="50" relative="1" as="geometry">
            <mxPoint x="470" y="260" as="sourcePoint" />
            <mxPoint x="520" y="210" as="targetPoint" />
            <Array as="points">
              <mxPoint x="490" y="137" />
            </Array>
          </mxGeometry>
        </mxCell>
        <mxCell id="lD8pX8BNRvtxvGFlaqxf-75" value="" style="endArrow=classic;html=1;rounded=0;entryX=0.5;entryY=0;entryDx=0;entryDy=0;exitX=0;exitY=0.75;exitDx=0;exitDy=0;" parent="lD8pX8BNRvtxvGFlaqxf-64" source="lD8pX8BNRvtxvGFlaqxf-66" target="lD8pX8BNRvtxvGFlaqxf-68" edge="1">
          <mxGeometry width="50" height="50" relative="1" as="geometry">
            <mxPoint x="130" y="90" as="sourcePoint" />
            <mxPoint x="182" y="311.5" as="targetPoint" />
            <Array as="points">
              <mxPoint x="80" y="130" />
            </Array>
          </mxGeometry>
        </mxCell>
        <mxCell id="lD8pX8BNRvtxvGFlaqxf-76" value="Classe Filho" style="text;html=1;align=center;verticalAlign=middle;resizable=0;points=[];autosize=1;strokeColor=none;fillColor=none;" parent="1" vertex="1">
          <mxGeometry x="1360" y="760" width="90" height="30" as="geometry" />
        </mxCell>
        <mxCell id="lD8pX8BNRvtxvGFlaqxf-77" value="Classe Filho" style="text;html=1;align=center;verticalAlign=middle;resizable=0;points=[];autosize=1;strokeColor=none;fillColor=none;" parent="1" vertex="1">
          <mxGeometry x="1755" y="760" width="90" height="30" as="geometry" />
        </mxCell>
        <mxCell id="lD8pX8BNRvtxvGFlaqxf-78" value="Mo" style="group" parent="1" vertex="1" connectable="0">
          <mxGeometry x="2000" y="120" width="560" height="650" as="geometry" />
        </mxCell>
        <mxCell id="lD8pX8BNRvtxvGFlaqxf-79" value="Corte" style="rounded=0;whiteSpace=wrap;html=1;" parent="lD8pX8BNRvtxvGFlaqxf-78" vertex="1">
          <mxGeometry x="200" width="160" height="40" as="geometry" />
        </mxCell>
        <mxCell id="lD8pX8BNRvtxvGFlaqxf-80" value="- Empresa&lt;div&gt;- Produção Diária&lt;/div&gt;&lt;div&gt;&lt;br&gt;&lt;/div&gt;" style="rounded=0;whiteSpace=wrap;html=1;" parent="lD8pX8BNRvtxvGFlaqxf-78" vertex="1">
          <mxGeometry x="200" y="40" width="160" height="120" as="geometry" />
        </mxCell>
        <mxCell id="lD8pX8BNRvtxvGFlaqxf-81" value="+ Set Empresa&lt;div&gt;+Get Empresa&lt;/div&gt;&lt;div&gt;+ Set Produção Diária&lt;/div&gt;&lt;div&gt;+ Get Produção Diária&lt;/div&gt;" style="rounded=0;whiteSpace=wrap;html=1;" parent="lD8pX8BNRvtxvGFlaqxf-78" vertex="1">
          <mxGeometry x="200" y="160" width="160" height="140" as="geometry" />
        </mxCell>
        <mxCell id="lD8pX8BNRvtxvGFlaqxf-82" value="Serviço&amp;nbsp;" style="rounded=0;whiteSpace=wrap;html=1;" parent="lD8pX8BNRvtxvGFlaqxf-78" vertex="1">
          <mxGeometry y="320" width="160" height="40" as="geometry" />
        </mxCell>
        <mxCell id="lD8pX8BNRvtxvGFlaqxf-83" value="+ Calças Adultas" style="rounded=0;whiteSpace=wrap;html=1;" parent="lD8pX8BNRvtxvGFlaqxf-78" vertex="1">
          <mxGeometry y="360" width="160" height="120" as="geometry" />
        </mxCell>
        <mxCell id="lD8pX8BNRvtxvGFlaqxf-84" value="+ Get Calças Adultas&lt;div&gt;+ Set Calças Adultas&lt;/div&gt;" style="rounded=0;whiteSpace=wrap;html=1;" parent="lD8pX8BNRvtxvGFlaqxf-78" vertex="1">
          <mxGeometry y="480" width="160" height="160" as="geometry" />
        </mxCell>
        <mxCell id="lD8pX8BNRvtxvGFlaqxf-85" value="Tecido" style="rounded=0;whiteSpace=wrap;html=1;" parent="lD8pX8BNRvtxvGFlaqxf-78" vertex="1">
          <mxGeometry x="400" y="320" width="160" height="40" as="geometry" />
        </mxCell>
        <mxCell id="lD8pX8BNRvtxvGFlaqxf-86" value="+ Moletom" style="rounded=0;whiteSpace=wrap;html=1;" parent="lD8pX8BNRvtxvGFlaqxf-78" vertex="1">
          <mxGeometry x="400" y="360" width="160" height="120" as="geometry" />
        </mxCell>
        <mxCell id="lD8pX8BNRvtxvGFlaqxf-87" value="+ Get Moletom&lt;div&gt;+ Set Moletom&lt;/div&gt;" style="rounded=0;whiteSpace=wrap;html=1;" parent="lD8pX8BNRvtxvGFlaqxf-78" vertex="1">
          <mxGeometry x="400" y="480" width="160" height="160" as="geometry" />
        </mxCell>
        <mxCell id="lD8pX8BNRvtxvGFlaqxf-88" value="" style="endArrow=classic;html=1;rounded=0;exitX=0.988;exitY=0.808;exitDx=0;exitDy=0;exitPerimeter=0;entryX=0.563;entryY=0;entryDx=0;entryDy=0;entryPerimeter=0;" parent="lD8pX8BNRvtxvGFlaqxf-78" source="lD8pX8BNRvtxvGFlaqxf-80" target="lD8pX8BNRvtxvGFlaqxf-85" edge="1">
          <mxGeometry width="50" height="50" relative="1" as="geometry">
            <mxPoint x="470" y="260" as="sourcePoint" />
            <mxPoint x="520" y="210" as="targetPoint" />
            <Array as="points">
              <mxPoint x="490" y="137" />
            </Array>
          </mxGeometry>
        </mxCell>
        <mxCell id="lD8pX8BNRvtxvGFlaqxf-89" value="" style="endArrow=classic;html=1;rounded=0;entryX=0.5;entryY=0;entryDx=0;entryDy=0;exitX=0;exitY=0.75;exitDx=0;exitDy=0;" parent="lD8pX8BNRvtxvGFlaqxf-78" source="lD8pX8BNRvtxvGFlaqxf-80" target="lD8pX8BNRvtxvGFlaqxf-82" edge="1">
          <mxGeometry width="50" height="50" relative="1" as="geometry">
            <mxPoint x="130" y="90" as="sourcePoint" />
            <mxPoint x="182" y="311.5" as="targetPoint" />
            <Array as="points">
              <mxPoint x="80" y="130" />
            </Array>
          </mxGeometry>
        </mxCell>
        <mxCell id="s3HX80oe75aAFl1lstIz-1" value="Mo" style="group" vertex="1" connectable="0" parent="1">
          <mxGeometry x="2680" y="120" width="560" height="650" as="geometry" />
        </mxCell>
        <mxCell id="s3HX80oe75aAFl1lstIz-2" value="Colaboradores de Corte" style="rounded=0;whiteSpace=wrap;html=1;" vertex="1" parent="s3HX80oe75aAFl1lstIz-1">
          <mxGeometry x="200" width="160" height="40" as="geometry" />
        </mxCell>
        <mxCell id="s3HX80oe75aAFl1lstIz-3" value="&lt;div&gt;- CPF&lt;/div&gt;&lt;div&gt;- E-mail&lt;/div&gt;&lt;div&gt;- Número&lt;/div&gt;" style="rounded=0;whiteSpace=wrap;html=1;" vertex="1" parent="s3HX80oe75aAFl1lstIz-1">
          <mxGeometry x="200" y="40" width="160" height="120" as="geometry" />
        </mxCell>
        <mxCell id="s3HX80oe75aAFl1lstIz-4" value="+ Set CPF&lt;div&gt;+Get CPF&lt;/div&gt;&lt;div&gt;+ Set E-mail&lt;/div&gt;&lt;div&gt;+ Get E-mail&lt;/div&gt;&lt;div&gt;+Set Número&lt;/div&gt;&lt;div&gt;+ Get Número&lt;/div&gt;" style="rounded=0;whiteSpace=wrap;html=1;" vertex="1" parent="s3HX80oe75aAFl1lstIz-1">
          <mxGeometry x="200" y="160" width="160" height="140" as="geometry" />
        </mxCell>
        <mxCell id="s3HX80oe75aAFl1lstIz-5" value="Quantidade" style="rounded=0;whiteSpace=wrap;html=1;" vertex="1" parent="s3HX80oe75aAFl1lstIz-1">
          <mxGeometry y="320" width="160" height="40" as="geometry" />
        </mxCell>
        <mxCell id="s3HX80oe75aAFl1lstIz-6" value="+ 6 Colaboradores" style="rounded=0;whiteSpace=wrap;html=1;" vertex="1" parent="s3HX80oe75aAFl1lstIz-1">
          <mxGeometry y="360" width="160" height="120" as="geometry" />
        </mxCell>
        <mxCell id="s3HX80oe75aAFl1lstIz-7" value="+ Get 6 Colaboradores&lt;div&gt;+ Set Calças Adultas&lt;/div&gt;" style="rounded=0;whiteSpace=wrap;html=1;" vertex="1" parent="s3HX80oe75aAFl1lstIz-1">
          <mxGeometry y="480" width="160" height="160" as="geometry" />
        </mxCell>
        <mxCell id="s3HX80oe75aAFl1lstIz-8" value="Colaboradores de Costura" style="rounded=0;whiteSpace=wrap;html=1;" vertex="1" parent="s3HX80oe75aAFl1lstIz-1">
          <mxGeometry x="400" y="320" width="160" height="40" as="geometry" />
        </mxCell>
        <mxCell id="s3HX80oe75aAFl1lstIz-9" value="" style="rounded=0;whiteSpace=wrap;html=1;" vertex="1" parent="s3HX80oe75aAFl1lstIz-1">
          <mxGeometry x="400" y="360" width="160" height="120" as="geometry" />
        </mxCell>
        <mxCell id="s3HX80oe75aAFl1lstIz-10" value="" style="rounded=0;whiteSpace=wrap;html=1;" vertex="1" parent="s3HX80oe75aAFl1lstIz-1">
          <mxGeometry x="400" y="480" width="160" height="160" as="geometry" />
        </mxCell>
        <mxCell id="s3HX80oe75aAFl1lstIz-11" value="" style="endArrow=classic;html=1;rounded=0;exitX=0.988;exitY=0.808;exitDx=0;exitDy=0;exitPerimeter=0;entryX=0.563;entryY=0;entryDx=0;entryDy=0;entryPerimeter=0;" edge="1" parent="s3HX80oe75aAFl1lstIz-1" source="s3HX80oe75aAFl1lstIz-3" target="s3HX80oe75aAFl1lstIz-8">
          <mxGeometry width="50" height="50" relative="1" as="geometry">
            <mxPoint x="470" y="260" as="sourcePoint" />
            <mxPoint x="520" y="210" as="targetPoint" />
            <Array as="points">
              <mxPoint x="490" y="137" />
            </Array>
          </mxGeometry>
        </mxCell>
        <mxCell id="s3HX80oe75aAFl1lstIz-12" value="" style="endArrow=classic;html=1;rounded=0;entryX=0.5;entryY=0;entryDx=0;entryDy=0;exitX=0;exitY=0.75;exitDx=0;exitDy=0;" edge="1" parent="s3HX80oe75aAFl1lstIz-1" source="s3HX80oe75aAFl1lstIz-3" target="s3HX80oe75aAFl1lstIz-5">
          <mxGeometry width="50" height="50" relative="1" as="geometry">
            <mxPoint x="130" y="90" as="sourcePoint" />
            <mxPoint x="182" y="311.5" as="targetPoint" />
            <Array as="points">
              <mxPoint x="80" y="130" />
            </Array>
          </mxGeometry>
        </mxCell>
        <mxCell id="s3HX80oe75aAFl1lstIz-13" value="Mo" style="group" vertex="1" connectable="0" parent="1">
          <mxGeometry x="3360" y="120" width="560" height="650" as="geometry" />
        </mxCell>
        <mxCell id="s3HX80oe75aAFl1lstIz-14" value="Bordado" style="rounded=0;whiteSpace=wrap;html=1;" vertex="1" parent="s3HX80oe75aAFl1lstIz-13">
          <mxGeometry x="200" width="160" height="40" as="geometry" />
        </mxCell>
        <mxCell id="s3HX80oe75aAFl1lstIz-15" value="- Empresa&lt;div&gt;- Produção Diária&lt;/div&gt;&lt;div&gt;&lt;br&gt;&lt;/div&gt;" style="rounded=0;whiteSpace=wrap;html=1;" vertex="1" parent="s3HX80oe75aAFl1lstIz-13">
          <mxGeometry x="200" y="40" width="160" height="120" as="geometry" />
        </mxCell>
        <mxCell id="s3HX80oe75aAFl1lstIz-16" value="+ Set Empresa&lt;div&gt;+Get Empresa&lt;/div&gt;&lt;div&gt;+ Set Produção Diária&lt;/div&gt;&lt;div&gt;+ Get Produção Diária&lt;/div&gt;" style="rounded=0;whiteSpace=wrap;html=1;" vertex="1" parent="s3HX80oe75aAFl1lstIz-13">
          <mxGeometry x="200" y="160" width="160" height="140" as="geometry" />
        </mxCell>
        <mxCell id="s3HX80oe75aAFl1lstIz-17" value="Serviço&amp;nbsp;" style="rounded=0;whiteSpace=wrap;html=1;" vertex="1" parent="s3HX80oe75aAFl1lstIz-13">
          <mxGeometry y="320" width="160" height="40" as="geometry" />
        </mxCell>
        <mxCell id="s3HX80oe75aAFl1lstIz-18" value="+ Arte a Mandar" style="rounded=0;whiteSpace=wrap;html=1;" vertex="1" parent="s3HX80oe75aAFl1lstIz-13">
          <mxGeometry y="360" width="160" height="120" as="geometry" />
        </mxCell>
        <mxCell id="s3HX80oe75aAFl1lstIz-19" value="+ Get Arte a Mandar&lt;div&gt;+ Set Arte a Mandar&lt;/div&gt;" style="rounded=0;whiteSpace=wrap;html=1;" vertex="1" parent="s3HX80oe75aAFl1lstIz-13">
          <mxGeometry y="480" width="160" height="160" as="geometry" />
        </mxCell>
        <mxCell id="s3HX80oe75aAFl1lstIz-20" value="Quantidade" style="rounded=0;whiteSpace=wrap;html=1;" vertex="1" parent="s3HX80oe75aAFl1lstIz-13">
          <mxGeometry x="400" y="320" width="160" height="40" as="geometry" />
        </mxCell>
        <mxCell id="s3HX80oe75aAFl1lstIz-21" value="+ 1300 Pç" style="rounded=0;whiteSpace=wrap;html=1;" vertex="1" parent="s3HX80oe75aAFl1lstIz-13">
          <mxGeometry x="400" y="360" width="160" height="120" as="geometry" />
        </mxCell>
        <mxCell id="s3HX80oe75aAFl1lstIz-22" value="+ Get 1300 Pç&lt;div&gt;+ Set 1300 Pç&lt;/div&gt;" style="rounded=0;whiteSpace=wrap;html=1;" vertex="1" parent="s3HX80oe75aAFl1lstIz-13">
          <mxGeometry x="400" y="480" width="160" height="160" as="geometry" />
        </mxCell>
        <mxCell id="s3HX80oe75aAFl1lstIz-23" value="" style="endArrow=classic;html=1;rounded=0;exitX=0.988;exitY=0.808;exitDx=0;exitDy=0;exitPerimeter=0;entryX=0.563;entryY=0;entryDx=0;entryDy=0;entryPerimeter=0;" edge="1" parent="s3HX80oe75aAFl1lstIz-13" source="s3HX80oe75aAFl1lstIz-15" target="s3HX80oe75aAFl1lstIz-20">
          <mxGeometry width="50" height="50" relative="1" as="geometry">
            <mxPoint x="470" y="260" as="sourcePoint" />
            <mxPoint x="520" y="210" as="targetPoint" />
            <Array as="points">
              <mxPoint x="490" y="137" />
            </Array>
          </mxGeometry>
        </mxCell>
        <mxCell id="s3HX80oe75aAFl1lstIz-24" value="" style="endArrow=classic;html=1;rounded=0;entryX=0.5;entryY=0;entryDx=0;entryDy=0;exitX=0;exitY=0.75;exitDx=0;exitDy=0;" edge="1" parent="s3HX80oe75aAFl1lstIz-13" source="s3HX80oe75aAFl1lstIz-15" target="s3HX80oe75aAFl1lstIz-17">
          <mxGeometry width="50" height="50" relative="1" as="geometry">
            <mxPoint x="130" y="90" as="sourcePoint" />
            <mxPoint x="182" y="311.5" as="targetPoint" />
            <Array as="points">
              <mxPoint x="80" y="130" />
            </Array>
          </mxGeometry>
        </mxCell>
        <mxCell id="s3HX80oe75aAFl1lstIz-25" value="Mo" style="group" vertex="1" connectable="0" parent="1">
          <mxGeometry x="4040" y="120" width="560" height="650" as="geometry" />
        </mxCell>
        <mxCell id="s3HX80oe75aAFl1lstIz-26" value="Costura" style="rounded=0;whiteSpace=wrap;html=1;" vertex="1" parent="s3HX80oe75aAFl1lstIz-25">
          <mxGeometry x="200" width="160" height="40" as="geometry" />
        </mxCell>
        <mxCell id="s3HX80oe75aAFl1lstIz-27" value="- Empresa&lt;div&gt;- Produção Diária&lt;/div&gt;&lt;div&gt;&lt;br&gt;&lt;/div&gt;" style="rounded=0;whiteSpace=wrap;html=1;" vertex="1" parent="s3HX80oe75aAFl1lstIz-25">
          <mxGeometry x="200" y="40" width="160" height="120" as="geometry" />
        </mxCell>
        <mxCell id="s3HX80oe75aAFl1lstIz-28" value="+ Set Empresa&lt;div&gt;+Get Empresa&lt;/div&gt;&lt;div&gt;+ Set Produção Diária&lt;/div&gt;&lt;div&gt;+ Get Produção Diária&lt;/div&gt;" style="rounded=0;whiteSpace=wrap;html=1;" vertex="1" parent="s3HX80oe75aAFl1lstIz-25">
          <mxGeometry x="200" y="160" width="160" height="140" as="geometry" />
        </mxCell>
        <mxCell id="s3HX80oe75aAFl1lstIz-29" value="Serviço&amp;nbsp;" style="rounded=0;whiteSpace=wrap;html=1;" vertex="1" parent="s3HX80oe75aAFl1lstIz-25">
          <mxGeometry y="320" width="160" height="40" as="geometry" />
        </mxCell>
        <mxCell id="s3HX80oe75aAFl1lstIz-30" value="+ Calças Adultas" style="rounded=0;whiteSpace=wrap;html=1;" vertex="1" parent="s3HX80oe75aAFl1lstIz-25">
          <mxGeometry y="360" width="160" height="120" as="geometry" />
        </mxCell>
        <mxCell id="s3HX80oe75aAFl1lstIz-31" value="+ Get Calças Adultas&lt;div&gt;+ Set Calças Adultas&lt;/div&gt;" style="rounded=0;whiteSpace=wrap;html=1;" vertex="1" parent="s3HX80oe75aAFl1lstIz-25">
          <mxGeometry y="480" width="160" height="160" as="geometry" />
        </mxCell>
        <mxCell id="s3HX80oe75aAFl1lstIz-32" value="Quantidade" style="rounded=0;whiteSpace=wrap;html=1;" vertex="1" parent="s3HX80oe75aAFl1lstIz-25">
          <mxGeometry x="400" y="320" width="160" height="40" as="geometry" />
        </mxCell>
        <mxCell id="s3HX80oe75aAFl1lstIz-33" value="&amp;nbsp;+1300 Pç&lt;div&gt;&lt;br&gt;&lt;/div&gt;" style="rounded=0;whiteSpace=wrap;html=1;" vertex="1" parent="s3HX80oe75aAFl1lstIz-25">
          <mxGeometry x="400" y="360" width="160" height="120" as="geometry" />
        </mxCell>
        <mxCell id="s3HX80oe75aAFl1lstIz-34" value="+ Get 1300 Pç&lt;div&gt;+ Set 1300 Pç&lt;/div&gt;" style="rounded=0;whiteSpace=wrap;html=1;" vertex="1" parent="s3HX80oe75aAFl1lstIz-25">
          <mxGeometry x="400" y="480" width="160" height="160" as="geometry" />
        </mxCell>
        <mxCell id="s3HX80oe75aAFl1lstIz-35" value="" style="endArrow=classic;html=1;rounded=0;exitX=0.988;exitY=0.808;exitDx=0;exitDy=0;exitPerimeter=0;entryX=0.563;entryY=0;entryDx=0;entryDy=0;entryPerimeter=0;" edge="1" parent="s3HX80oe75aAFl1lstIz-25" source="s3HX80oe75aAFl1lstIz-27" target="s3HX80oe75aAFl1lstIz-32">
          <mxGeometry width="50" height="50" relative="1" as="geometry">
            <mxPoint x="470" y="260" as="sourcePoint" />
            <mxPoint x="520" y="210" as="targetPoint" />
            <Array as="points">
              <mxPoint x="490" y="137" />
            </Array>
          </mxGeometry>
        </mxCell>
        <mxCell id="s3HX80oe75aAFl1lstIz-36" value="" style="endArrow=classic;html=1;rounded=0;entryX=0.5;entryY=0;entryDx=0;entryDy=0;exitX=0;exitY=0.75;exitDx=0;exitDy=0;" edge="1" parent="s3HX80oe75aAFl1lstIz-25" source="s3HX80oe75aAFl1lstIz-27" target="s3HX80oe75aAFl1lstIz-29">
          <mxGeometry width="50" height="50" relative="1" as="geometry">
            <mxPoint x="130" y="90" as="sourcePoint" />
            <mxPoint x="182" y="311.5" as="targetPoint" />
            <Array as="points">
              <mxPoint x="80" y="130" />
            </Array>
          </mxGeometry>
        </mxCell>
        <mxCell id="s3HX80oe75aAFl1lstIz-49" value="Mo" style="group" vertex="1" connectable="0" parent="1">
          <mxGeometry x="4720" y="120" width="560" height="650" as="geometry" />
        </mxCell>
        <mxCell id="s3HX80oe75aAFl1lstIz-50" value="Tirar Linha" style="rounded=0;whiteSpace=wrap;html=1;" vertex="1" parent="s3HX80oe75aAFl1lstIz-49">
          <mxGeometry x="200" width="160" height="40" as="geometry" />
        </mxCell>
        <mxCell id="s3HX80oe75aAFl1lstIz-51" value="- Empresa&lt;div&gt;- Produção Diária&lt;/div&gt;&lt;div&gt;&lt;br&gt;&lt;/div&gt;" style="rounded=0;whiteSpace=wrap;html=1;" vertex="1" parent="s3HX80oe75aAFl1lstIz-49">
          <mxGeometry x="200" y="40" width="160" height="120" as="geometry" />
        </mxCell>
        <mxCell id="s3HX80oe75aAFl1lstIz-52" value="+ Set Empresa&lt;div&gt;+Get Empresa&lt;/div&gt;&lt;div&gt;+ Set Produção Diária&lt;/div&gt;&lt;div&gt;+ Get Produção Diária&lt;/div&gt;" style="rounded=0;whiteSpace=wrap;html=1;" vertex="1" parent="s3HX80oe75aAFl1lstIz-49">
          <mxGeometry x="200" y="160" width="160" height="140" as="geometry" />
        </mxCell>
        <mxCell id="s3HX80oe75aAFl1lstIz-53" value="Serviço&amp;nbsp;" style="rounded=0;whiteSpace=wrap;html=1;" vertex="1" parent="s3HX80oe75aAFl1lstIz-49">
          <mxGeometry y="320" width="160" height="40" as="geometry" />
        </mxCell>
        <mxCell id="s3HX80oe75aAFl1lstIz-54" value="+ Calças Adultas" style="rounded=0;whiteSpace=wrap;html=1;" vertex="1" parent="s3HX80oe75aAFl1lstIz-49">
          <mxGeometry y="360" width="160" height="120" as="geometry" />
        </mxCell>
        <mxCell id="s3HX80oe75aAFl1lstIz-55" value="+ Get Calças Adultas&lt;div&gt;+ Set Calças Adultas&lt;/div&gt;" style="rounded=0;whiteSpace=wrap;html=1;" vertex="1" parent="s3HX80oe75aAFl1lstIz-49">
          <mxGeometry y="480" width="160" height="160" as="geometry" />
        </mxCell>
        <mxCell id="s3HX80oe75aAFl1lstIz-56" value="Quantidade" style="rounded=0;whiteSpace=wrap;html=1;" vertex="1" parent="s3HX80oe75aAFl1lstIz-49">
          <mxGeometry x="400" y="320" width="160" height="40" as="geometry" />
        </mxCell>
        <mxCell id="s3HX80oe75aAFl1lstIz-57" value="+ 1300 Pç" style="rounded=0;whiteSpace=wrap;html=1;" vertex="1" parent="s3HX80oe75aAFl1lstIz-49">
          <mxGeometry x="400" y="360" width="160" height="120" as="geometry" />
        </mxCell>
        <mxCell id="s3HX80oe75aAFl1lstIz-58" value="+ Get 1300 Pç&lt;div&gt;+ Set 1300 Pç&lt;/div&gt;" style="rounded=0;whiteSpace=wrap;html=1;" vertex="1" parent="s3HX80oe75aAFl1lstIz-49">
          <mxGeometry x="400" y="480" width="160" height="160" as="geometry" />
        </mxCell>
        <mxCell id="s3HX80oe75aAFl1lstIz-59" value="" style="endArrow=classic;html=1;rounded=0;exitX=0.988;exitY=0.808;exitDx=0;exitDy=0;exitPerimeter=0;entryX=0.563;entryY=0;entryDx=0;entryDy=0;entryPerimeter=0;" edge="1" parent="s3HX80oe75aAFl1lstIz-49" source="s3HX80oe75aAFl1lstIz-51" target="s3HX80oe75aAFl1lstIz-56">
          <mxGeometry width="50" height="50" relative="1" as="geometry">
            <mxPoint x="470" y="260" as="sourcePoint" />
            <mxPoint x="520" y="210" as="targetPoint" />
            <Array as="points">
              <mxPoint x="490" y="137" />
            </Array>
          </mxGeometry>
        </mxCell>
        <mxCell id="s3HX80oe75aAFl1lstIz-60" value="" style="endArrow=classic;html=1;rounded=0;entryX=0.5;entryY=0;entryDx=0;entryDy=0;exitX=0;exitY=0.75;exitDx=0;exitDy=0;" edge="1" parent="s3HX80oe75aAFl1lstIz-49" source="s3HX80oe75aAFl1lstIz-51" target="s3HX80oe75aAFl1lstIz-53">
          <mxGeometry width="50" height="50" relative="1" as="geometry">
            <mxPoint x="130" y="90" as="sourcePoint" />
            <mxPoint x="182" y="311.5" as="targetPoint" />
            <Array as="points">
              <mxPoint x="80" y="130" />
            </Array>
          </mxGeometry>
        </mxCell>
        <mxCell id="s3HX80oe75aAFl1lstIz-73" value="Mo" style="group" vertex="1" connectable="0" parent="1">
          <mxGeometry x="6080" y="120" width="560" height="650" as="geometry" />
        </mxCell>
        <mxCell id="s3HX80oe75aAFl1lstIz-74" value="Acabamento" style="rounded=0;whiteSpace=wrap;html=1;" vertex="1" parent="s3HX80oe75aAFl1lstIz-73">
          <mxGeometry x="200" width="160" height="40" as="geometry" />
        </mxCell>
        <mxCell id="s3HX80oe75aAFl1lstIz-75" value="- Empresa&lt;div&gt;- Produção Diária&lt;/div&gt;&lt;div&gt;&lt;br&gt;&lt;/div&gt;" style="rounded=0;whiteSpace=wrap;html=1;" vertex="1" parent="s3HX80oe75aAFl1lstIz-73">
          <mxGeometry x="200" y="40" width="160" height="120" as="geometry" />
        </mxCell>
        <mxCell id="s3HX80oe75aAFl1lstIz-76" value="+ Set Empresa&lt;div&gt;+Get Empresa&lt;/div&gt;&lt;div&gt;+ Set Produção Diária&lt;/div&gt;&lt;div&gt;+ Get Produção Diária&lt;/div&gt;" style="rounded=0;whiteSpace=wrap;html=1;" vertex="1" parent="s3HX80oe75aAFl1lstIz-73">
          <mxGeometry x="200" y="160" width="160" height="140" as="geometry" />
        </mxCell>
        <mxCell id="s3HX80oe75aAFl1lstIz-77" value="Serviço&amp;nbsp;" style="rounded=0;whiteSpace=wrap;html=1;" vertex="1" parent="s3HX80oe75aAFl1lstIz-73">
          <mxGeometry y="320" width="160" height="40" as="geometry" />
        </mxCell>
        <mxCell id="s3HX80oe75aAFl1lstIz-78" value="+ Calças Adultas" style="rounded=0;whiteSpace=wrap;html=1;" vertex="1" parent="s3HX80oe75aAFl1lstIz-73">
          <mxGeometry y="360" width="160" height="120" as="geometry" />
        </mxCell>
        <mxCell id="s3HX80oe75aAFl1lstIz-79" value="+ Get Calças Adultas&lt;div&gt;+ Set Calças Adultas&lt;/div&gt;" style="rounded=0;whiteSpace=wrap;html=1;" vertex="1" parent="s3HX80oe75aAFl1lstIz-73">
          <mxGeometry y="480" width="160" height="160" as="geometry" />
        </mxCell>
        <mxCell id="s3HX80oe75aAFl1lstIz-80" value="Quantidade" style="rounded=0;whiteSpace=wrap;html=1;" vertex="1" parent="s3HX80oe75aAFl1lstIz-73">
          <mxGeometry x="400" y="320" width="160" height="40" as="geometry" />
        </mxCell>
        <mxCell id="s3HX80oe75aAFl1lstIz-81" value="+ 1300 Pç" style="rounded=0;whiteSpace=wrap;html=1;" vertex="1" parent="s3HX80oe75aAFl1lstIz-73">
          <mxGeometry x="400" y="360" width="160" height="120" as="geometry" />
        </mxCell>
        <mxCell id="s3HX80oe75aAFl1lstIz-82" value="+ Get 1300 Pç&lt;div&gt;+ Set 1300 Pç&lt;/div&gt;" style="rounded=0;whiteSpace=wrap;html=1;" vertex="1" parent="s3HX80oe75aAFl1lstIz-73">
          <mxGeometry x="400" y="480" width="160" height="160" as="geometry" />
        </mxCell>
        <mxCell id="s3HX80oe75aAFl1lstIz-83" value="" style="endArrow=classic;html=1;rounded=0;exitX=0.988;exitY=0.808;exitDx=0;exitDy=0;exitPerimeter=0;entryX=0.563;entryY=0;entryDx=0;entryDy=0;entryPerimeter=0;" edge="1" parent="s3HX80oe75aAFl1lstIz-73" source="s3HX80oe75aAFl1lstIz-75" target="s3HX80oe75aAFl1lstIz-80">
          <mxGeometry width="50" height="50" relative="1" as="geometry">
            <mxPoint x="470" y="260" as="sourcePoint" />
            <mxPoint x="520" y="210" as="targetPoint" />
            <Array as="points">
              <mxPoint x="490" y="137" />
            </Array>
          </mxGeometry>
        </mxCell>
        <mxCell id="s3HX80oe75aAFl1lstIz-84" value="" style="endArrow=classic;html=1;rounded=0;entryX=0.5;entryY=0;entryDx=0;entryDy=0;exitX=0;exitY=0.75;exitDx=0;exitDy=0;" edge="1" parent="s3HX80oe75aAFl1lstIz-73" source="s3HX80oe75aAFl1lstIz-75" target="s3HX80oe75aAFl1lstIz-77">
          <mxGeometry width="50" height="50" relative="1" as="geometry">
            <mxPoint x="130" y="90" as="sourcePoint" />
            <mxPoint x="182" y="311.5" as="targetPoint" />
            <Array as="points">
              <mxPoint x="80" y="130" />
            </Array>
          </mxGeometry>
        </mxCell>
        <mxCell id="s3HX80oe75aAFl1lstIz-85" value="" style="group" vertex="1" connectable="0" parent="1">
          <mxGeometry x="5400" y="120" width="560" height="650" as="geometry" />
        </mxCell>
        <mxCell id="s3HX80oe75aAFl1lstIz-86" value="Despache para Acabamento" style="rounded=0;whiteSpace=wrap;html=1;" vertex="1" parent="s3HX80oe75aAFl1lstIz-85">
          <mxGeometry x="200" width="160" height="40" as="geometry" />
        </mxCell>
        <mxCell id="s3HX80oe75aAFl1lstIz-87" value="&lt;div&gt;- Modelo&lt;/div&gt;&lt;div&gt;- Quantidade&lt;/div&gt;&lt;div&gt;&lt;br&gt;&lt;/div&gt;" style="rounded=0;whiteSpace=wrap;html=1;" vertex="1" parent="s3HX80oe75aAFl1lstIz-85">
          <mxGeometry x="200" y="40" width="160" height="120" as="geometry" />
        </mxCell>
        <mxCell id="s3HX80oe75aAFl1lstIz-88" value="&lt;div&gt;+ Set Modelo&lt;/div&gt;&lt;div&gt;+ Get Modelo&lt;/div&gt;&lt;div&gt;+ Set Quantidade&lt;/div&gt;&lt;div&gt;+ Get Quantidade&amp;nbsp;&lt;/div&gt;" style="rounded=0;whiteSpace=wrap;html=1;" vertex="1" parent="s3HX80oe75aAFl1lstIz-85">
          <mxGeometry x="200" y="160" width="160" height="140" as="geometry" />
        </mxCell>
        <mxCell id="s3HX80oe75aAFl1lstIz-89" value="Localização&amp;nbsp;" style="rounded=0;whiteSpace=wrap;html=1;" vertex="1" parent="s3HX80oe75aAFl1lstIz-85">
          <mxGeometry y="320" width="160" height="40" as="geometry" />
        </mxCell>
        <mxCell id="s3HX80oe75aAFl1lstIz-90" value="&lt;div&gt;Estado:&lt;/div&gt;&lt;div&gt;Cidade:&lt;/div&gt;&lt;div&gt;Bairro:&lt;/div&gt;Rua:&lt;div&gt;Número:&lt;/div&gt;" style="rounded=0;whiteSpace=wrap;html=1;" vertex="1" parent="s3HX80oe75aAFl1lstIz-85">
          <mxGeometry y="360" width="160" height="120" as="geometry" />
        </mxCell>
        <mxCell id="s3HX80oe75aAFl1lstIz-91" value="+ Get Estado&lt;div&gt;+ Set Estado&lt;/div&gt;&lt;div&gt;&lt;div&gt;+ Get Cidade&lt;/div&gt;&lt;div&gt;+ Set Cidade&lt;/div&gt;&lt;/div&gt;&lt;div&gt;+ Get Bairro&lt;/div&gt;&lt;div&gt;+ Set Bairro&lt;/div&gt;&lt;div&gt;+ Get Rua&lt;/div&gt;&lt;div&gt;+ Set Rua&lt;/div&gt;&lt;div&gt;+ Get Número&amp;nbsp;&lt;/div&gt;&lt;div&gt;+ Set Número&lt;/div&gt;" style="rounded=0;whiteSpace=wrap;html=1;" vertex="1" parent="s3HX80oe75aAFl1lstIz-85">
          <mxGeometry y="480" width="160" height="170" as="geometry" />
        </mxCell>
        <mxCell id="s3HX80oe75aAFl1lstIz-92" value="Minha Localização" style="rounded=0;whiteSpace=wrap;html=1;" vertex="1" parent="s3HX80oe75aAFl1lstIz-85">
          <mxGeometry x="400" y="320" width="160" height="40" as="geometry" />
        </mxCell>
        <mxCell id="s3HX80oe75aAFl1lstIz-93" value="&lt;div&gt;Estado:&lt;/div&gt;&lt;div&gt;Cidade:&lt;/div&gt;&lt;div&gt;Bairro:&lt;/div&gt;Rua:&lt;div&gt;Número:&lt;/div&gt;" style="rounded=0;whiteSpace=wrap;html=1;" vertex="1" parent="s3HX80oe75aAFl1lstIz-85">
          <mxGeometry x="400" y="360" width="160" height="120" as="geometry" />
        </mxCell>
        <mxCell id="s3HX80oe75aAFl1lstIz-94" value="+ Get Estado&lt;div&gt;+ Set Estado&lt;/div&gt;&lt;div&gt;&lt;div&gt;+ Get Cidade&lt;/div&gt;&lt;div&gt;+ Set Cidade&lt;/div&gt;&lt;/div&gt;&lt;div&gt;+ Get Bairro&lt;/div&gt;&lt;div&gt;+ Set Bairro&lt;/div&gt;&lt;div&gt;+ Get Rua&lt;/div&gt;&lt;div&gt;+ Set Rua&lt;/div&gt;&lt;div&gt;+ Get Número&amp;nbsp;&lt;/div&gt;&lt;div&gt;+ Set Número&lt;/div&gt;" style="rounded=0;whiteSpace=wrap;html=1;" vertex="1" parent="s3HX80oe75aAFl1lstIz-85">
          <mxGeometry x="400" y="480" width="160" height="170" as="geometry" />
        </mxCell>
        <mxCell id="s3HX80oe75aAFl1lstIz-95" value="" style="endArrow=classic;html=1;rounded=0;exitX=0.988;exitY=0.808;exitDx=0;exitDy=0;exitPerimeter=0;entryX=0.563;entryY=0;entryDx=0;entryDy=0;entryPerimeter=0;" edge="1" parent="s3HX80oe75aAFl1lstIz-85" source="s3HX80oe75aAFl1lstIz-87" target="s3HX80oe75aAFl1lstIz-92">
          <mxGeometry width="50" height="50" relative="1" as="geometry">
            <mxPoint x="470" y="260" as="sourcePoint" />
            <mxPoint x="520" y="210" as="targetPoint" />
            <Array as="points">
              <mxPoint x="490" y="137" />
            </Array>
          </mxGeometry>
        </mxCell>
        <mxCell id="s3HX80oe75aAFl1lstIz-96" value="" style="endArrow=classic;html=1;rounded=0;entryX=0.5;entryY=0;entryDx=0;entryDy=0;exitX=0;exitY=0.75;exitDx=0;exitDy=0;" edge="1" parent="s3HX80oe75aAFl1lstIz-85" source="s3HX80oe75aAFl1lstIz-87" target="s3HX80oe75aAFl1lstIz-89">
          <mxGeometry width="50" height="50" relative="1" as="geometry">
            <mxPoint x="130" y="90" as="sourcePoint" />
            <mxPoint x="182" y="311.5" as="targetPoint" />
            <Array as="points">
              <mxPoint x="80" y="130" />
            </Array>
          </mxGeometry>
        </mxCell>
        <mxCell id="s3HX80oe75aAFl1lstIz-97" value="Classe Pai" style="text;html=1;align=center;verticalAlign=middle;resizable=0;points=[];autosize=1;strokeColor=none;fillColor=none;" vertex="1" parent="1">
          <mxGeometry x="1560" y="80" width="80" height="30" as="geometry" />
        </mxCell>
        <mxCell id="s3HX80oe75aAFl1lstIz-98" value="Classe Pai" style="text;html=1;align=center;verticalAlign=middle;resizable=0;points=[];autosize=1;strokeColor=none;fillColor=none;" vertex="1" parent="1">
          <mxGeometry x="2240" y="90" width="80" height="30" as="geometry" />
        </mxCell>
        <mxCell id="s3HX80oe75aAFl1lstIz-99" value="Classe Pai" style="text;html=1;align=center;verticalAlign=middle;resizable=0;points=[];autosize=1;strokeColor=none;fillColor=none;" vertex="1" parent="1">
          <mxGeometry x="2920" y="90" width="80" height="30" as="geometry" />
        </mxCell>
        <mxCell id="s3HX80oe75aAFl1lstIz-100" value="Classe Pai" style="text;html=1;align=center;verticalAlign=middle;resizable=0;points=[];autosize=1;strokeColor=none;fillColor=none;" vertex="1" parent="1">
          <mxGeometry x="3600" y="90" width="80" height="30" as="geometry" />
        </mxCell>
        <mxCell id="s3HX80oe75aAFl1lstIz-101" value="Classe Pai" style="text;html=1;align=center;verticalAlign=middle;resizable=0;points=[];autosize=1;strokeColor=none;fillColor=none;" vertex="1" parent="1">
          <mxGeometry x="4280" y="90" width="80" height="30" as="geometry" />
        </mxCell>
        <mxCell id="s3HX80oe75aAFl1lstIz-102" value="Classe Pai" style="text;html=1;align=center;verticalAlign=middle;resizable=0;points=[];autosize=1;strokeColor=none;fillColor=none;" vertex="1" parent="1">
          <mxGeometry x="4960" y="90" width="80" height="30" as="geometry" />
        </mxCell>
        <mxCell id="s3HX80oe75aAFl1lstIz-103" value="Classe Pai" style="text;html=1;align=center;verticalAlign=middle;resizable=0;points=[];autosize=1;strokeColor=none;fillColor=none;" vertex="1" parent="1">
          <mxGeometry x="5640" y="90" width="80" height="30" as="geometry" />
        </mxCell>
        <mxCell id="s3HX80oe75aAFl1lstIz-104" value="Classe Pai" style="text;html=1;align=center;verticalAlign=middle;resizable=0;points=[];autosize=1;strokeColor=none;fillColor=none;" vertex="1" parent="1">
          <mxGeometry x="6320" y="90" width="80" height="30" as="geometry" />
        </mxCell>
      </root>
    </mxGraphModel>
  </diagram>
</mxfile>
